<svg id="visual" viewBox="0 0 900 600" width="900" height="600" xmlns="http://www.w3.org/2000/svg" xmlns:xlink="http://www.w3.org/1999/xlink" version="1.1"><path d="M0 85L30 80C60 75 120 65 180 62C240 59 300 63 360 62C420 61 480 55 540 57C600 59 660 69 720 78C780 87 840 95 870 99L900 103L900 0L870 0C840 0 780 0 720 0C660 0 600 0 540 0C480 0 420 0 360 0C300 0 240 0 180 0C120 0 60 0 30 0L0 0Z" fill="#050505"></path><path d="M0 103L30 101C60 99 120 95 180 94C240 93 300 95 360 93C420 91 480 85 540 87C600 89 660 99 720 108C780 117 840 125 870 129L900 133L900 101L870 97C840 93 780 85 720 76C660 67 600 57 540 55C480 53 420 59 360 60C300 61 240 57 180 60C120 63 60 73 30 78L0 83Z" fill="#050505"></path><path d="M0 133L30 130C60 127 120 121 180 120C240 119 300 123 360 120C420 117 480 107 540 108C600 109 660 121 720 130C780 139 840 145 870 148L900 151L900 131L870 127C840 123 780 115 720 106C660 97 600 87 540 85C480 83 420 89 360 91C300 93 240 91 180 92C120 93 60 97 30 99L0 101Z" fill="#060606"></path><path d="M0 169L30 166C60 163 120 157 180 157C240 157 300 163 360 158C420 153 480 137 540 135C600 133 660 145 720 154C780 163 840 169 870 172L900 175L900 149L870 146C840 143 780 137 720 128C660 119 600 107 540 106C480 105 420 115 360 118C300 121 240 117 180 118C120 119 60 125 30 128L0 131Z" fill="#060606"></path><path d="M0 181L30 181C60 181 120 181 180 185C240 189 300 197 360 191C420 185 480 165 540 161C600 157 660 169 720 179C780 189 840 197 870 201L900 205L900 173L870 170C840 167 780 161 720 152C660 143 600 131 540 133C480 135 420 151 360 156C300 161 240 155 180 155C120 155 60 161 30 164L0 167Z" fill="#060606"></path><path d="M0 229L30 231C60 233 120 237 180 239C240 241 300 241 360 235C420 229 480 217 540 212C600 207 660 209 720 216C780 223 840 235 870 241L900 247L900 203L870 199C840 195 780 187 720 177C660 167 600 155 540 159C480 163 420 183 360 189C300 195 240 187 180 183C120 179 60 179 30 179L0 179Z" fill="#070707"></path><path d="M0 241L30 245C60 249 120 257 180 261C240 265 300 265 360 259C420 253 480 241 540 236C600 231 660 233 720 240C780 247 840 259 870 265L900 271L900 245L870 239C840 233 780 221 720 214C660 207 600 205 540 210C480 215 420 227 360 233C300 239 240 239 180 237C120 235 60 231 30 229L0 227Z" fill="#0c0c0c"></path><path d="M0 277L30 278C60 279 120 281 180 282C240 283 300 283 360 278C420 273 480 263 540 258C600 253 660 253 720 260C780 267 840 281 870 288L900 295L900 269L870 263C840 257 780 245 720 238C660 231 600 229 540 234C480 239 420 251 360 257C300 263 240 263 180 259C120 255 60 247 30 243L0 239Z" fill="#141414"></path><path d="M0 379L30 374C60 369 120 359 180 357C240 355 300 361 360 369C420 377 480 387 540 383C600 379 660 361 720 357C780 353 840 363 870 368L900 373L900 293L870 286C840 279 780 265 720 258C660 251 600 251 540 256C480 261 420 271 360 276C300 281 240 281 180 280C120 279 60 277 30 276L0 275Z" fill="#1a1a1a"></path><path d="M0 415L30 412C60 409 120 403 180 407C240 411 300 425 360 436C420 447 480 455 540 452C600 449 660 435 720 426C780 417 840 413 870 411L900 409L900 371L870 366C840 361 780 351 720 355C660 359 600 377 540 381C480 385 420 375 360 367C300 359 240 353 180 355C120 357 60 367 30 372L0 377Z" fill="#202020"></path><path d="M0 433L30 432C60 431 120 429 180 435C240 441 300 455 360 468C420 481 480 493 540 487C600 481 660 457 720 444C780 431 840 429 870 428L900 427L900 407L870 409C840 411 780 415 720 424C660 433 600 447 540 450C480 453 420 445 360 434C300 423 240 409 180 405C120 401 60 407 30 410L0 413Z" fill="#272727"></path><path d="M0 601L30 601C60 601 120 601 180 601C240 601 300 601 360 601C420 601 480 601 540 601C600 601 660 601 720 601C780 601 840 601 870 601L900 601L900 425L870 426C840 427 780 429 720 442C660 455 600 479 540 485C480 491 420 479 360 466C300 453 240 439 180 433C120 427 60 429 30 430L0 431Z" fill="#2d2d2d"></path></svg>