<svg id="visual" viewBox="0 0 960 540" width="960" height="540" xmlns="http://www.w3.org/2000/svg" xmlns:xlink="http://www.w3.org/1999/xlink" version="1.1"><rect x="0" y="0" width="960" height="540" fill="#A2C3A4"></rect><defs><linearGradient id="grad1_0" x1="43.8%" y1="0%" x2="100%" y2="100%"><stop offset="14.444444444444446%" stop-color="#c4f1be" stop-opacity="1"></stop><stop offset="85.55555555555554%" stop-color="#c4f1be" stop-opacity="1"></stop></linearGradient></defs><defs><linearGradient id="grad1_1" x1="43.8%" y1="0%" x2="100%" y2="100%"><stop offset="14.444444444444446%" stop-color="#c4f1be" stop-opacity="1"></stop><stop offset="85.55555555555554%" stop-color="#bee9ba" stop-opacity="1"></stop></linearGradient></defs><defs><linearGradient id="grad1_2" x1="43.8%" y1="0%" x2="100%" y2="100%"><stop offset="14.444444444444446%" stop-color="#b8e2b6" stop-opacity="1"></stop><stop offset="85.55555555555554%" stop-color="#bee9ba" stop-opacity="1"></stop></linearGradient></defs><defs><linearGradient id="grad1_3" x1="43.8%" y1="0%" x2="100%" y2="100%"><stop offset="14.444444444444446%" stop-color="#b8e2b6" stop-opacity="1"></stop><stop offset="85.55555555555554%" stop-color="#b2dab1" stop-opacity="1"></stop></linearGradient></defs><defs><linearGradient id="grad1_4" x1="43.8%" y1="0%" x2="100%" y2="100%"><stop offset="14.444444444444446%" stop-color="#add2ad" stop-opacity="1"></stop><stop offset="85.55555555555554%" stop-color="#b2dab1" stop-opacity="1"></stop></linearGradient></defs><defs><linearGradient id="grad1_5" x1="43.8%" y1="0%" x2="100%" y2="100%"><stop offset="14.444444444444446%" stop-color="#add2ad" stop-opacity="1"></stop><stop offset="85.55555555555554%" stop-color="#a7cba8" stop-opacity="1"></stop></linearGradient></defs><defs><linearGradient id="grad1_6" x1="43.8%" y1="0%" x2="100%" y2="100%"><stop offset="14.444444444444446%" stop-color="#a2c3a4" stop-opacity="1"></stop><stop offset="85.55555555555554%" stop-color="#a7cba8" stop-opacity="1"></stop></linearGradient></defs><defs><linearGradient id="grad2_0" x1="0%" y1="0%" x2="56.3%" y2="100%"><stop offset="14.444444444444446%" stop-color="#c4f1be" stop-opacity="1"></stop><stop offset="85.55555555555554%" stop-color="#c4f1be" stop-opacity="1"></stop></linearGradient></defs><defs><linearGradient id="grad2_1" x1="0%" y1="0%" x2="56.3%" y2="100%"><stop offset="14.444444444444446%" stop-color="#bee9ba" stop-opacity="1"></stop><stop offset="85.55555555555554%" stop-color="#c4f1be" stop-opacity="1"></stop></linearGradient></defs><defs><linearGradient id="grad2_2" x1="0%" y1="0%" x2="56.3%" y2="100%"><stop offset="14.444444444444446%" stop-color="#bee9ba" stop-opacity="1"></stop><stop offset="85.55555555555554%" stop-color="#b8e2b6" stop-opacity="1"></stop></linearGradient></defs><defs><linearGradient id="grad2_3" x1="0%" y1="0%" x2="56.3%" y2="100%"><stop offset="14.444444444444446%" stop-color="#b2dab1" stop-opacity="1"></stop><stop offset="85.55555555555554%" stop-color="#b8e2b6" stop-opacity="1"></stop></linearGradient></defs><defs><linearGradient id="grad2_4" x1="0%" y1="0%" x2="56.3%" y2="100%"><stop offset="14.444444444444446%" stop-color="#b2dab1" stop-opacity="1"></stop><stop offset="85.55555555555554%" stop-color="#add2ad" stop-opacity="1"></stop></linearGradient></defs><defs><linearGradient id="grad2_5" x1="0%" y1="0%" x2="56.3%" y2="100%"><stop offset="14.444444444444446%" stop-color="#a7cba8" stop-opacity="1"></stop><stop offset="85.55555555555554%" stop-color="#add2ad" stop-opacity="1"></stop></linearGradient></defs><defs><linearGradient id="grad2_6" x1="0%" y1="0%" x2="56.3%" y2="100%"><stop offset="14.444444444444446%" stop-color="#a7cba8" stop-opacity="1"></stop><stop offset="85.55555555555554%" stop-color="#a2c3a4" stop-opacity="1"></stop></linearGradient></defs><g transform="translate(960, 0)"><path d="M0 486C-66.1 482.9 -132.2 479.8 -186 449C-239.8 418.2 -281.2 359.8 -305.5 305.5C-329.7 251.2 -336.8 201 -364 150.8C-391.2 100.6 -438.6 50.3 -486 0L0 0Z" fill="#a5c7a6"></path><path d="M0 416.6C-56.7 413.9 -113.3 411.2 -159.4 384.9C-205.5 358.5 -241 308.4 -261.8 261.8C-282.6 215.3 -288.7 172.3 -312 129.2C-335.3 86.2 -376 43.1 -416.6 0L0 0Z" fill="#aaceab"></path><path d="M0 347.1C-47.2 344.9 -94.4 342.7 -132.8 320.7C-171.3 298.7 -200.9 257 -218.2 218.2C-235.5 179.4 -240.6 143.6 -260 107.7C-279.5 71.8 -313.3 35.9 -347.1 0L0 0Z" fill="#b0d6af"></path><path d="M0 277.7C-37.8 275.9 -75.5 274.2 -106.3 256.6C-137 239 -160.7 205.6 -174.6 174.6C-188.4 143.5 -192.4 114.9 -208 86.2C-223.6 57.5 -250.6 28.7 -277.7 0L0 0Z" fill="#b5deb3"></path><path d="M0 208.3C-28.3 207 -56.7 205.6 -79.7 192.4C-102.8 179.2 -120.5 154.2 -130.9 130.9C-141.3 107.6 -144.3 86.1 -156 64.6C-167.7 43.1 -188 21.5 -208.3 0L0 0Z" fill="#bbe5b8"></path><path d="M0 138.9C-18.9 138 -37.8 137.1 -53.1 128.3C-68.5 119.5 -80.3 102.8 -87.3 87.3C-94.2 71.8 -96.2 57.4 -104 43.1C-111.8 28.7 -125.3 14.4 -138.9 0L0 0Z" fill="#c1edbc"></path><path d="M0 69.4C-9.4 69 -18.9 68.5 -26.6 64.1C-34.3 59.7 -40.2 51.4 -43.6 43.6C-47.1 35.9 -48.1 28.7 -52 21.5C-55.9 14.4 -62.7 7.2 -69.4 0L0 0Z" fill="#c4f1be"></path></g><g transform="translate(0, 540)"><path d="M0 -486C46.4 -440.4 92.7 -394.7 156.9 -378.8C221.1 -362.9 303.1 -376.7 343.7 -343.7C384.2 -310.6 383.2 -230.8 400 -165.7C416.8 -100.6 451.4 -50.3 486 0L0 0Z" fill="#a5c7a6"></path><path d="M0 -416.6C39.7 -377.4 79.5 -338.3 134.5 -324.7C189.5 -311 259.8 -322.9 294.6 -294.6C329.3 -266.3 328.5 -197.8 342.9 -142C357.3 -86.2 386.9 -43.1 416.6 0L0 0Z" fill="#aaceab"></path><path d="M0 -347.1C33.1 -314.5 66.2 -281.9 112.1 -270.6C157.9 -259.2 216.5 -269.1 245.5 -245.5C274.4 -221.9 273.7 -164.8 285.7 -118.4C297.7 -71.9 322.4 -35.9 347.1 0L0 0Z" fill="#b0d6af"></path><path d="M0 -277.7C26.5 -251.6 53 -225.5 89.7 -216.5C126.3 -207.4 173.2 -215.2 196.4 -196.4C219.5 -177.5 219 -131.9 228.6 -94.7C238.2 -57.5 258 -28.7 277.7 0L0 0Z" fill="#b5deb3"></path><path d="M0 -208.3C19.9 -188.7 39.7 -169.2 67.2 -162.3C94.8 -155.5 129.9 -161.4 147.3 -147.3C164.7 -133.1 164.2 -98.9 171.4 -71C178.6 -43.1 193.5 -21.6 208.3 0L0 0Z" fill="#bbe5b8"></path><path d="M0 -138.9C13.2 -125.8 26.5 -112.8 44.8 -108.2C63.2 -103.7 86.6 -107.6 98.2 -98.2C109.8 -88.8 109.5 -65.9 114.3 -47.3C119.1 -28.7 129 -14.4 138.9 0L0 0Z" fill="#c1edbc"></path><path d="M0 -69.4C6.6 -62.9 13.2 -56.4 22.4 -54.1C31.6 -51.8 43.3 -53.8 49.1 -49.1C54.9 -44.4 54.7 -33 57.1 -23.7C59.5 -14.4 64.5 -7.2 69.4 0L0 0Z" fill="#c4f1be"></path></g></svg>