<svg id="visual" viewBox="0 0 960 540" width="960" height="540" xmlns="http://www.w3.org/2000/svg" xmlns:xlink="http://www.w3.org/1999/xlink" version="1.1"><path d="M0 33L32 31.3C64 29.7 128 26.3 192 25.5C256 24.7 320 26.3 384 29C448 31.7 512 35.3 576 36.2C640 37 704 35 768 35.8C832 36.7 896 40.3 928 42.2L960 44L960 0L928 0C896 0 832 0 768 0C704 0 640 0 576 0C512 0 448 0 384 0C320 0 256 0 192 0C128 0 64 0 32 0L0 0Z" fill="#050505"></path><path d="M0 147L32 137C64 127 128 107 192 110.5C256 114 320 141 384 152.8C448 164.7 512 161.3 576 167.7C640 174 704 190 768 186.3C832 182.7 896 159.3 928 147.7L960 136L960 42L928 40.2C896 38.3 832 34.7 768 33.8C704 33 640 35 576 34.2C512 33.3 448 29.7 384 27C320 24.3 256 22.7 192 23.5C128 24.3 64 27.7 32 29.3L0 31Z" fill="#050505"></path><path d="M0 174L32 163.2C64 152.3 128 130.7 192 135.2C256 139.7 320 170.3 384 183C448 195.7 512 190.3 576 192.2C640 194 704 203 768 195.7C832 188.3 896 164.7 928 152.8L960 141L960 134L928 145.7C896 157.3 832 180.7 768 184.3C704 188 640 172 576 165.7C512 159.3 448 162.7 384 150.8C320 139 256 112 192 108.5C128 105 64 125 32 135L0 145Z" fill="#060606"></path><path d="M0 201L32 192.8C64 184.7 128 168.3 192 171C256 173.7 320 195.3 384 207C448 218.7 512 220.3 576 225.7C640 231 704 240 768 229.3C832 218.7 896 188.3 928 173.2L960 158L960 139L928 150.8C896 162.7 832 186.3 768 193.7C704 201 640 192 576 190.2C512 188.3 448 193.7 384 181C320 168.3 256 137.7 192 133.2C128 128.7 64 150.3 32 161.2L0 172Z" fill="#060606"></path><path d="M0 217L32 208C64 199 128 181 192 182.8C256 184.7 320 206.3 384 221.7C448 237 512 246 576 252.3C640 258.7 704 262.3 768 250.7C832 239 896 212 928 198.5L960 185L960 156L928 171.2C896 186.3 832 216.7 768 227.3C704 238 640 229 576 223.7C512 218.3 448 216.7 384 205C320 193.3 256 171.7 192 169C128 166.3 64 182.7 32 190.8L0 199Z" fill="#060606"></path><path d="M0 233L32 223.2C64 213.3 128 193.7 192 199.2C256 204.7 320 235.3 384 256C448 276.7 512 287.3 576 293.5C640 299.7 704 301.3 768 290.5C832 279.7 896 256.3 928 244.7L960 233L960 183L928 196.5C896 210 832 237 768 248.7C704 260.3 640 256.7 576 250.3C512 244 448 235 384 219.7C320 204.3 256 182.7 192 180.8C128 179 64 197 32 206L0 215Z" fill="#070707"></path><path d="M0 282L32 269.3C64 256.7 128 231.3 192 232.2C256 233 320 260 384 284.3C448 308.7 512 330.3 576 336.7C640 343 704 334 768 318.7C832 303.3 896 281.7 928 270.8L960 260L960 231L928 242.7C896 254.3 832 277.7 768 288.5C704 299.3 640 297.7 576 291.5C512 285.3 448 274.7 384 254C320 233.3 256 202.7 192 197.2C128 191.7 64 211.3 32 221.2L0 231Z" fill="#0c0c0c"></path><path d="M0 309L32 294.5C64 280 128 251 192 253.7C256 256.3 320 290.7 384 317.7C448 344.7 512 364.3 576 368.8C640 373.3 704 362.7 768 345.7C832 328.7 896 305.3 928 293.7L960 282L960 258L928 268.8C896 279.7 832 301.3 768 316.7C704 332 640 341 576 334.7C512 328.3 448 306.7 384 282.3C320 258 256 231 192 230.2C128 229.3 64 254.7 32 267.3L0 280Z" fill="#141414"></path><path d="M0 384L32 365.2C64 346.3 128 308.7 192 308.7C256 308.7 320 346.3 384 369.7C448 393 512 402 576 402C640 402 704 393 768 379.5C832 366 896 348 928 339L960 330L960 280L928 291.7C896 303.3 832 326.7 768 343.7C704 360.7 640 371.3 576 366.8C512 362.3 448 342.7 384 315.7C320 288.7 256 254.3 192 251.7C128 249 64 278 32 292.5L0 307Z" fill="#1a1a1a"></path><path d="M0 395L32 375.2C64 355.3 128 315.7 192 316.7C256 317.7 320 359.3 384 383.7C448 408 512 415 576 415.8C640 416.7 704 411.3 768 401.5C832 391.7 896 377.3 928 370.2L960 363L960 328L928 337C896 346 832 364 768 377.5C704 391 640 400 576 400C512 400 448 391 384 367.7C320 344.3 256 306.7 192 306.7C128 306.7 64 344.3 32 363.2L0 382Z" fill="#202020"></path><path d="M0 471L32 476.3C64 481.7 128 492.3 192 495.8C256 499.3 320 495.7 384 493C448 490.3 512 488.7 576 491.5C640 494.3 704 501.7 768 502.5C832 503.3 896 497.7 928 494.8L960 492L960 361L928 368.2C896 375.3 832 389.7 768 399.5C704 409.3 640 414.7 576 413.8C512 413 448 406 384 381.7C320 357.3 256 315.7 192 314.7C128 313.7 64 353.3 32 373.2L0 393Z" fill="#272727"></path><path d="M0 541L32 541C64 541 128 541 192 541C256 541 320 541 384 541C448 541 512 541 576 541C640 541 704 541 768 541C832 541 896 541 928 541L960 541L960 490L928 492.8C896 495.7 832 501.3 768 500.5C704 499.7 640 492.3 576 489.5C512 486.7 448 488.3 384 491C320 493.7 256 497.3 192 493.8C128 490.3 64 479.7 32 474.3L0 469Z" fill="#2d2d2d"></path></svg>